REM DIRINDEX 1\2\4\8,1\2\4\9,1\2\4\10,1\2\5\11,1\2\5\12,1\2\5\13,1\2\5\14,1\2\5\15,1\3\6\16,1\3\6\17,1\3\6\18,1\3\7\19,1\3\7\20,1\3\7\21,1\3\7\22,1\3\7\23
REM DIRNAME "folder01","folder02","folder03","folder04","folder05","folder06","folder07","folder08","folder09","folder10","folder11","folder12","folder13","folder14","folder15","folder16","folder17","folder18","folder19","folder20","folder21","folder22","folder23"
TITLE ""
FILE "LR_black_phrase_E_S08.mp3" MP3
  TRACK 01 AUDIO
    TITLE "0:"
    INDEX 01 00:00:00
  TRACK 02 AUDIO
    TITLE "16:cjc171_10821"
    INDEX 01 00:00:14
  TRACK 03 AUDIO
    TITLE "0:"
    INDEX 01 00:01:14
  TRACK 04 AUDIO
    TITLE "17:cjc171_10822"
    INDEX 01 00:01:45
  TRACK 05 AUDIO
    TITLE "0:"
    INDEX 01 00:03:38
  TRACK 06 AUDIO
    TITLE "18:cjc171_10823"
    INDEX 01 00:04:18
  TRACK 07 AUDIO
    TITLE "0:"
    INDEX 01 00:06:11
  TRACK 08 AUDIO
    TITLE "16:cjc171_10824"
    INDEX 01 00:07:14
  TRACK 09 AUDIO
    TITLE "0:"
    INDEX 01 00:08:29
  TRACK 10 AUDIO
    TITLE "17:cjc171_10825"
    INDEX 01 00:08:59
  TRACK 11 AUDIO
    TITLE "0:"
    INDEX 01 00:11:08
  TRACK 12 AUDIO
    TITLE "18:cjc171_10826"
    INDEX 01 00:11:63
  TRACK 13 AUDIO
    TITLE "0:"
    INDEX 01 00:14:10
  TRACK 14 AUDIO
    TITLE "16:cjc171_10827"
    INDEX 01 00:15:10
  TRACK 15 AUDIO
    TITLE "0:"
    INDEX 01 00:16:21
  TRACK 16 AUDIO
    TITLE "17:cjc171_10828"
    INDEX 01 00:16:43
  TRACK 17 AUDIO
    TITLE "0:"
    INDEX 01 00:19:04
  TRACK 18 AUDIO
    TITLE "18:cjc171_10829"
    INDEX 01 00:19:49
  TRACK 19 AUDIO
    TITLE "0:"
    INDEX 01 00:22:12
  TRACK 20 AUDIO
    TITLE "16:cjc171_10830"
    INDEX 01 00:23:07
  TRACK 21 AUDIO
    TITLE "0:"
    INDEX 01 00:24:28
  TRACK 22 AUDIO
    TITLE "17:cjc171_10831"
    INDEX 01 00:24:58
  TRACK 23 AUDIO
    TITLE "0:"
    INDEX 01 00:27:17
  TRACK 24 AUDIO
    TITLE "18:cjc171_10832"
    INDEX 01 00:27:62
  TRACK 25 AUDIO
    TITLE "0:"
    INDEX 01 00:30:23
  TRACK 26 AUDIO
    TITLE "16:cjc171_10833"
    INDEX 01 00:31:23
  TRACK 27 AUDIO
    TITLE "0:"
    INDEX 01 00:32:34
  TRACK 28 AUDIO
    TITLE "17:cjc171_10834"
    INDEX 01 00:32:65
  TRACK 29 AUDIO
    TITLE "0:"
    INDEX 01 00:34:39
  TRACK 30 AUDIO
    TITLE "18:cjc171_10835"
    INDEX 01 00:35:20
  TRACK 31 AUDIO
    TITLE "0:"
    INDEX 01 00:36:69
  TRACK 32 AUDIO
    TITLE "16:cjc171_10836"
    INDEX 01 00:37:74
  TRACK 33 AUDIO
    TITLE "0:"
    INDEX 01 00:39:22
  TRACK 34 AUDIO
    TITLE "17:cjc171_10837"
    INDEX 01 00:39:51
  TRACK 35 AUDIO
    TITLE "0:"
    INDEX 01 00:42:34
  TRACK 36 AUDIO
    TITLE "18:cjc171_10838"
    INDEX 01 00:43:12
  TRACK 37 AUDIO
    TITLE "0:"
    INDEX 01 00:45:70
  TRACK 38 AUDIO
    TITLE "16:cjc171_10839"
    INDEX 01 00:46:73
  TRACK 39 AUDIO
    TITLE "0:"
    INDEX 01 00:48:31
  TRACK 40 AUDIO
    TITLE "17:cjc171_10840"
    INDEX 01 00:48:52
  TRACK 41 AUDIO
    TITLE "0:"
    INDEX 01 00:51:16
  TRACK 42 AUDIO
    TITLE "18:cjc171_10841"
    INDEX 01 00:51:61
  TRACK 43 AUDIO
    TITLE "0:"
    INDEX 01 00:54:24
  TRACK 44 AUDIO
    TITLE "16:cjc171_10842"
    INDEX 01 00:55:17
  TRACK 45 AUDIO
    TITLE "0:"
    INDEX 01 00:56:36
  TRACK 46 AUDIO
    TITLE "17:cjc171_10843"
    INDEX 01 00:56:60
  TRACK 47 AUDIO
    TITLE "0:"
    INDEX 01 00:58:55
  TRACK 48 AUDIO
    TITLE "18:cjc171_10844"
    INDEX 01 00:59:25
  TRACK 49 AUDIO
    TITLE "0:"
    INDEX 01 01:01:20
  TRACK 50 AUDIO
    TITLE "16:cjc171_10845"
    INDEX 01 01:02:19
  TRACK 51 AUDIO
    TITLE "0:"
    INDEX 01 01:03:34
  TRACK 52 AUDIO
    TITLE "17:cjc171_10846"
    INDEX 01 01:03:66
  TRACK 53 AUDIO
    TITLE "0:"
    INDEX 01 01:05:57
  TRACK 54 AUDIO
    TITLE "18:cjc171_10847"
    INDEX 01 01:06:37
  TRACK 55 AUDIO
    TITLE "0:"
    INDEX 01 01:08:28
  TRACK 56 AUDIO
    TITLE "16:cjc171_10848"
    INDEX 01 01:09:35
  TRACK 57 AUDIO
    TITLE "0:"
    INDEX 01 01:10:44
  TRACK 58 AUDIO
    TITLE "17:cjc171_10849"
    INDEX 01 01:10:72
  TRACK 59 AUDIO
    TITLE "0:"
    INDEX 01 01:12:61
  TRACK 60 AUDIO
    TITLE "18:cjc171_10850"
    INDEX 01 01:13:41
  TRACK 61 AUDIO
    TITLE "0:"
    INDEX 01 01:15:28
  TRACK 62 AUDIO
    TITLE "16:cjc171_10851"
    INDEX 01 01:16:27
  TRACK 63 AUDIO
    TITLE "0:"
    INDEX 01 01:17:52
  TRACK 64 AUDIO
    TITLE "17:cjc171_10852"
    INDEX 01 01:17:72
  TRACK 65 AUDIO
    TITLE "0:"
    INDEX 01 01:20:56
  TRACK 66 AUDIO
    TITLE "18:cjc171_10853"
    INDEX 01 01:21:30
  TRACK 67 AUDIO
    TITLE "0:"
    INDEX 01 01:24:17
  TRACK 68 AUDIO
    TITLE "16:cjc171_10854"
    INDEX 01 01:25:12
  TRACK 69 AUDIO
    TITLE "0:"
    INDEX 01 01:26:30
  TRACK 70 AUDIO
    TITLE "17:cjc171_10855"
    INDEX 01 01:26:51
  TRACK 71 AUDIO
    TITLE "0:"
    INDEX 01 01:29:34
  TRACK 72 AUDIO
    TITLE "18:cjc171_10856"
    INDEX 01 01:30:02
  TRACK 73 AUDIO
    TITLE "0:"
    INDEX 01 01:32:58
  TRACK 74 AUDIO
    TITLE "16:cjc171_10857"
    INDEX 01 01:33:57
  TRACK 75 AUDIO
    TITLE "0:"
    INDEX 01 01:34:68
  TRACK 76 AUDIO
    TITLE "17:cjc171_10858"
    INDEX 01 01:35:23
  TRACK 77 AUDIO
    TITLE "0:"
    INDEX 01 01:37:51
  TRACK 78 AUDIO
    TITLE "18:cjc171_10859"
    INDEX 01 01:38:29
  TRACK 79 AUDIO
    TITLE "0:"
    INDEX 01 01:40:57
  TRACK 80 AUDIO
    TITLE "16:cjc171_10860"
    INDEX 01 01:41:62
  TRACK 81 AUDIO
    TITLE "0:"
    INDEX 01 01:42:70
  TRACK 82 AUDIO
    TITLE "17:cjc171_10861"
    INDEX 01 01:43:20
  TRACK 83 AUDIO
    TITLE "0:"
    INDEX 01 01:45:41
  TRACK 84 AUDIO
    TITLE "18:cjc171_10862"
    INDEX 01 01:46:20
  TRACK 85 AUDIO
    TITLE "0:"
    INDEX 01 01:48:41
  TRACK 86 AUDIO
    TITLE "16:cjc171_10863"
    INDEX 01 01:49:40
  TRACK 87 AUDIO
    TITLE "0:"
    INDEX 01 01:50:42
  TRACK 88 AUDIO
    TITLE "17:cjc171_10864"
    INDEX 01 01:50:73
  TRACK 89 AUDIO
    TITLE "0:"
    INDEX 01 01:53:15
  TRACK 90 AUDIO
    TITLE "18:cjc171_10865"
    INDEX 01 01:53:62
  TRACK 91 AUDIO
    TITLE "0:"
    INDEX 01 01:56:05
  TRACK 92 AUDIO
    TITLE "16:cjc171_10866"
    INDEX 01 01:57:03
  TRACK 93 AUDIO
    TITLE "0:"
    INDEX 01 01:58:20
  TRACK 94 AUDIO
    TITLE "17:cjc171_10867"
    INDEX 01 01:58:37
  TRACK 95 AUDIO
    TITLE "0:"
    INDEX 01 02:01:00
  TRACK 96 AUDIO
    TITLE "18:cjc171_10868"
    INDEX 01 02:01:47
  TRACK 97 AUDIO
    TITLE "0:"
    INDEX 01 02:04:12
  TRACK 98 AUDIO
    TITLE "16:cjc171_10869"
    INDEX 01 02:05:12
  TRACK 99 AUDIO
    TITLE "0:"
    INDEX 01 02:06:15
  TRACK 100 AUDIO
    TITLE "17:cjc171_10870"
    INDEX 01 02:06:45
  TRACK 101 AUDIO
    TITLE "0:"
    INDEX 01 02:08:38
  TRACK 102 AUDIO
    TITLE "18:cjc171_10871"
    INDEX 01 02:09:18
  TRACK 103 AUDIO
    TITLE "0:"
    INDEX 01 02:11:11
  TRACK 104 AUDIO
    TITLE "16:cjc171_10872"
    INDEX 01 02:12:14
  TRACK 105 AUDIO
    TITLE "0:"
    INDEX 01 02:13:35
  TRACK 106 AUDIO
    TITLE "17:cjc171_10873"
    INDEX 01 02:13:64
  TRACK 107 AUDIO
    TITLE "0:"
    INDEX 01 02:15:53
  TRACK 108 AUDIO
    TITLE "18:cjc171_10874"
    INDEX 01 02:16:31
  TRACK 109 AUDIO
    TITLE "0:"
    INDEX 01 02:18:20
  TRACK 110 AUDIO
    TITLE "16:cjc171_10875"
    INDEX 01 02:19:20
  TRACK 111 AUDIO
    TITLE "0:"
    INDEX 01 02:20:33
  TRACK 112 AUDIO
    TITLE "17:cjc171_10876"
    INDEX 01 02:20:53
  TRACK 113 AUDIO
    TITLE "0:"
    INDEX 01 02:22:71
  TRACK 114 AUDIO
    TITLE "18:cjc171_10877"
    INDEX 01 02:23:43
  TRACK 115 AUDIO
    TITLE "0:"
    INDEX 01 02:25:62
  TRACK 116 AUDIO
    TITLE "16:cjc171_10878"
    INDEX 01 02:26:57
  TRACK 117 AUDIO
    TITLE "0:"
    INDEX 01 02:28:13
  TRACK 118 AUDIO
    TITLE "17:cjc171_10879"
    INDEX 01 02:28:42
  TRACK 119 AUDIO
    TITLE "0:"
    INDEX 01 02:30:49
  TRACK 120 AUDIO
    TITLE "18:cjc171_10880"
    INDEX 01 02:31:29
  TRACK 121 AUDIO
    TITLE "0:"
    INDEX 01 02:33:40
